<svg width="333" height="603" viewBox="0 0 333 603" fill="none" xmlns="http://www.w3.org/2000/svg">
<path d="M75.1664 62.875C56.7583 51.1181 33.9569 43.3849 13.0442 50.2693C-3.18777 55.6134 -15.437 69.5394 -24.6889 85.2257C-35.1042 102.877 -42.4401 122.666 -50.2139 141.951C-54.9767 153.755 -60.1638 165.104 -67.1165 175.446C-74.5892 186.574 -83.4853 196.445 -93.4079 204.65C-103.673 213.122 -114.978 219.739 -126.967 224.313C-140.639 229.531 -154.846 232.423 -168.874 236.07C-191.936 242.09 -216.393 251.442 -231.489 273.73C-238.168 283.585 -242.137 295.53 -242.315 308.057C-242.507 320.914 -238.921 333.583 -233.268 344.586C-220.444 369.593 -198.149 383.896 -174.883 393.059C-149.973 402.867 -123.682 407.535 -99.293 419.166C-87.1122 424.982 -75.4514 432.605 -65.7889 443.026C-56.2085 453.368 -48.8042 465.959 -42.2211 478.941C-29.8076 503.461 -19.8166 530.197 -1.92859 550.363C6.32426 559.668 16.1921 567.197 27.3327 571.032C38.5281 574.867 50.49 574.867 61.8633 572.085C115.308 558.992 139.095 497.143 160.637 446.358C172.681 417.972 186.039 390.34 206.336 368.571C225.935 347.556 249.325 331.524 267.596 308.827C283.828 288.677 296.036 262.869 293.176 234.624C290.452 207.778 275.903 184.028 258.057 167.226C237.5 147.877 212.071 136.56 187.38 126.155C174.132 120.575 160.719 115.373 147.854 108.677C135.153 102.06 122.945 94.3107 110.888 86.2946C105.126 82.4594 99.4048 78.5614 93.6566 74.6948C87.5525 70.5925 81.2157 67.0402 75.0432 63.0951C74.5642 62.7807 74.1262 63.6295 74.6052 63.9438C80.7641 67.8733 86.6218 72.4472 92.6985 76.5495C98.4468 80.4161 104.168 84.3141 109.93 88.1493C121.714 95.9925 133.648 103.568 146.034 110.076C170.601 122.996 196.851 131.09 221.35 144.23C244.192 156.475 265.68 172.915 279.393 197.781C285.689 209.192 290.178 222.081 291.41 235.567C292.697 249.634 290.233 263.702 285.005 276.449C274.056 303.153 253.65 322.203 233.791 339.917C223.252 349.317 212.604 358.637 202.983 369.278C193.676 379.558 185.67 391.173 178.717 403.653C164.538 429.1 154.615 457.204 142.448 483.908C130.569 509.968 116.034 536.06 94.6557 553.13C74.9063 568.895 48.8887 577.351 25.4714 568.109C2.42364 559.008 -12.8092 534.913 -24.4152 511.587C-36.7329 486.816 -46.9703 459.64 -65.7616 440.181C-84.3202 420.974 -108.723 411.889 -132.4 404.628C-157.419 396.957 -183.546 390.67 -205.608 374.292C-225.07 359.847 -241.247 334.856 -240.481 307.209C-239.715 279.199 -220.006 259.505 -199.148 248.943C-174.116 236.258 -146.032 235.142 -120.575 223.888C-99.2519 214.458 -80.3511 198.205 -66.2953 177.552C-53.8134 159.225 -46.7786 137.393 -38.0057 116.646C-30.4372 98.7431 -21.8559 80.3847 -8.86756 66.8359C4.54503 52.8313 21.7624 47.5501 39.6093 50.4108C51.9133 52.3755 63.6151 57.4052 74.4958 64.211C75.2348 64.6354 75.8918 63.3465 75.1664 62.875Z" fill="#77B523" fill-opacity="0.5"/>
<g opacity="0.4248">
<path opacity="0.4248" d="M82.2841 17.3577C61.2345 3.91895 35.1484 -4.91445 11.2385 2.9759C-7.3065 9.09013 -21.3076 25.0123 -31.8734 42.9306C-43.7942 63.1437 -52.1839 85.7931 -61.0937 107.861C-66.5545 121.394 -72.4944 134.377 -80.4462 146.228C-89.0001 158.975 -99.1964 170.308 -110.583 179.691C-122.34 189.405 -135.301 196.981 -149.028 202.215C-164.672 208.188 -180.945 211.488 -196.999 215.685C-223.372 222.57 -251.361 233.258 -268.633 258.752C-276.256 270.006 -280.773 283.649 -280.992 297.952C-281.211 312.648 -277.105 327.109 -270.658 339.683C-256 368.274 -230.503 384.636 -203.897 395.104C-175.374 406.327 -145.278 411.671 -117.358 424.984C-103.384 431.648 -90.0129 440.387 -78.9407 452.333C-67.9642 464.168 -59.4787 478.597 -51.9376 493.482C-37.7449 521.538 -26.3031 552.141 -5.82838 575.215C3.60149 585.856 14.8653 594.453 27.6073 598.838C40.404 603.224 54.0629 603.224 67.0649 600.049C128.202 585.07 155.41 514.292 180.059 456.184C193.855 423.679 209.142 392.023 232.409 367.095C254.855 343.047 281.625 324.688 302.538 298.707C321.096 275.664 335.057 246.162 331.772 213.862C328.651 183.181 312.009 156.02 291.603 136.813C268.089 114.682 238.992 101.731 210.757 89.8326C195.579 83.4354 180.21 77.4783 165.469 69.808C150.935 62.2321 136.947 53.3672 123.151 44.1723C116.555 39.787 109.999 35.3232 103.429 30.8908C96.4494 26.1911 89.223 22.0573 82.1609 17.5463C81.6818 17.2319 81.2439 18.0807 81.7229 18.3951C88.7714 22.8904 95.5187 28.0615 102.485 32.7454C109.054 37.1779 115.624 41.626 122.207 46.027C135.688 55.0019 149.347 63.6781 163.526 71.1283C191.651 85.9188 221.706 95.1766 249.75 110.219C275.918 124.255 300.526 143.085 316.252 171.565C323.464 184.642 328.61 199.433 330.02 214.899C331.498 231.041 328.665 247.152 322.657 261.786C310.106 292.372 286.744 314.189 264.011 334.48C251.94 345.247 239.759 355.904 228.741 368.085C218.093 379.842 208.937 393.139 200.985 407.411C184.753 436.552 173.394 468.726 159.461 499.298C145.843 529.161 129.201 559.041 104.702 578.594C82.0651 596.654 52.2289 606.352 25.3901 595.742C-1.02449 585.305 -18.5019 557.705 -31.805 530.953C-45.9019 502.614 -57.6174 471.508 -79.1186 449.236C-100.346 427.263 -128.266 416.873 -155.351 408.574C-183.997 399.788 -213.929 392.573 -239.18 373.838C-261.489 357.287 -280.034 328.618 -279.171 296.915C-278.295 264.803 -255.699 242.201 -231.789 230.083C-203.13 215.559 -170.954 214.286 -141.802 201.382C-117.427 190.6 -95.8022 171.99 -79.7208 148.381C-65.4323 127.398 -57.3847 102.423 -47.3526 78.6886C-38.6755 58.1769 -28.8488 37.1621 -13.9717 21.6329C1.42535 5.56933 21.161 -0.482034 41.6494 2.81871C55.7463 5.08207 69.1452 10.8348 81.5998 18.6466C82.3662 19.1024 83.0231 17.8135 82.2841 17.3577Z" fill="url(#paint0_linear_3057_200)"/>
</g>
<path d="M181.354 372.782C197.477 352.773 217.869 338.407 235.47 320.3C250.812 304.519 264.909 284.463 268.358 260.494C271.67 237.357 263.842 214.598 251.209 196.821C237.14 177.016 217.554 164.159 197.381 154.163C175.332 143.239 152.052 135.804 130.427 123.733C108.885 111.693 89.0948 96.1009 67.8673 83.4481C51.7859 73.8602 32.0366 67.9974 14.1486 73.9231C0.380152 78.4812 -10.2952 89.8609 -18.4796 102.97C-27.8273 117.933 -34.4105 134.94 -41.0757 151.585C-44.8942 161.141 -48.6305 170.729 -53.6534 179.563C-59.2785 189.433 -66.0806 198.408 -73.786 206.204C-81.683 214.205 -90.5517 220.932 -100.05 226.134C-110.985 232.123 -122.742 235.628 -134.526 238.63C-155.959 244.084 -178.295 248.485 -196.292 263.983C-203.861 270.506 -210.403 278.805 -214.221 288.848C-218.04 298.876 -218.806 309.989 -216.876 320.677C-212.729 343.594 -198.085 362.046 -180.799 373.426C-141.738 399.156 -89.8674 394.739 -56.3086 432.305C-40.0218 450.538 -31.1942 475.089 -19.8345 497.235C-9.74774 516.914 3.24058 536.483 22.2235 545.332C41.5896 554.37 63.6519 549.654 81.4852 538.306C100.769 526.046 114.893 505.802 125.979 484.362C128.771 478.956 131.399 473.454 133.917 467.874C136.518 462.137 138.516 456.133 140.966 450.318C141.199 449.752 140.473 449.249 140.227 449.815C137.804 455.583 134.875 461.1 132.302 466.774C129.716 472.48 127.033 478.138 124.159 483.671C118.507 494.563 112.17 505.016 104.67 514.336C90.2034 532.318 70.7004 545.835 49.0897 547.752C38.7018 548.68 28.2181 546.652 18.8703 541.277C9.74156 536.027 2.04987 528.089 -4.46481 519.146C-18.1922 500.3 -26.404 477.384 -37.572 456.62C-43.1286 446.294 -49.4791 436.423 -57.3487 428.266C-65.2594 420.061 -74.525 413.774 -84.2423 408.854C-104.211 398.732 -125.767 394.174 -146.597 387.053C-167.346 379.965 -188.436 369.827 -202.355 349.959C-214.96 331.962 -220.941 306.877 -210.759 285.642C-200.877 265.036 -180.799 254.065 -161.857 248.076C-139.699 241.066 -116.474 238.41 -95.8072 226.103C-78.3709 215.729 -63.3023 200.153 -52.4627 181.354C-43.2108 165.322 -37.5036 146.807 -30.0035 129.674C-23.3793 114.569 -15.7286 99.2602 -4.45111 88.0691C7.237 76.4694 22.0045 72.0841 37.2374 74.2845C59.9703 77.5539 79.1859 93.1302 98.4973 106.082C108.666 112.903 118.917 119.599 129.524 125.509C139.748 131.214 150.286 135.851 160.962 140.299C200.679 156.913 249.129 176.105 264.074 226.873C267.373 238.064 268.344 250.041 266.415 261.672C264.444 273.524 259.749 284.526 253.714 294.334C240.821 315.333 222.427 330.202 205.127 345.983C196.409 353.936 187.924 362.235 180.437 371.713C179.876 372.436 180.793 373.489 181.354 372.782Z" fill="#77B523" fill-opacity="0.5"/>
<defs>
<linearGradient id="paint0_linear_3057_200" x1="-280.993" y1="301.155" x2="332.261" y2="301.155" gradientUnits="userSpaceOnUse">
<stop stop-color="#5C5A44"/>
<stop offset="0.6103" stop-color="#3F4541"/>
<stop offset="1" stop-color="#313C40"/>
</linearGradient>
</defs>
</svg>
