<svg width="392" height="747" viewBox="0 0 392 747" fill="none" xmlns="http://www.w3.org/2000/svg">
<path d="M472.19 78.2841C447.785 63.7146 417.556 54.1314 389.831 62.6628C368.311 69.2853 352.071 86.5428 339.805 105.982C325.997 127.856 316.272 152.379 305.965 176.278C299.651 190.906 292.774 204.969 283.557 217.786C273.649 231.576 261.855 243.809 248.7 253.976C235.092 264.475 220.104 272.675 204.209 278.343C186.083 284.81 167.248 288.394 148.65 292.913C118.076 300.373 85.6513 311.962 65.6376 339.582C56.783 351.795 51.521 366.598 51.2851 382.122C51.0311 398.055 55.785 413.755 63.2788 427.389C80.2805 458.379 109.838 476.104 140.684 487.459C173.708 499.614 208.564 505.399 240.898 519.812C257.047 527.019 272.506 536.466 285.317 549.38C298.018 562.197 307.834 577.799 316.562 593.888C333.019 624.273 346.265 657.405 369.98 682.396C380.921 693.927 394.004 703.257 408.774 708.009C423.616 712.762 439.475 712.762 454.553 709.314C525.408 693.089 556.944 616.443 585.504 553.51C601.471 518.332 619.181 484.09 646.089 457.113C672.073 431.07 703.082 411.203 727.305 383.077C748.825 358.106 765.01 326.123 761.218 291.121C757.607 257.852 738.319 228.421 714.659 207.599C687.405 183.621 653.692 169.597 620.959 156.703C603.395 149.788 585.613 143.341 568.557 135.043C551.718 126.843 535.533 117.24 519.548 107.306C511.909 102.554 504.324 97.7233 496.703 92.9317C488.611 87.8479 480.21 83.4458 472.026 78.5568C471.391 78.1673 470.811 79.2191 471.446 79.6087C479.611 84.4782 487.377 90.1463 495.433 95.2301C503.054 100.022 510.639 104.852 518.278 109.605C533.9 119.324 549.722 128.713 566.144 136.777C598.713 152.788 633.515 162.819 665.994 179.103C696.278 194.276 724.765 214.65 742.946 245.464C751.293 259.605 757.244 275.577 758.877 292.289C760.583 309.722 757.317 327.155 750.386 342.952C735.87 376.045 708.816 399.652 682.488 421.604C668.516 433.252 654.4 444.802 641.644 457.989C629.305 470.728 618.691 485.122 609.473 500.588C590.675 532.123 577.52 566.949 561.389 600.043C545.64 632.337 526.37 664.671 498.028 685.824C471.845 705.36 437.352 715.84 406.306 704.386C375.75 693.109 355.555 663.249 340.168 634.343C323.838 603.646 310.266 569.968 285.353 545.855C260.749 522.052 228.396 510.794 197.006 501.795C163.837 492.29 129.199 484.499 99.9494 464.203C74.1475 446.302 52.7004 415.332 53.7165 381.07C54.7326 346.36 80.8611 321.954 108.514 308.865C141.701 293.146 178.934 291.764 212.683 277.817C240.953 266.13 266.011 245.99 284.645 220.396C301.193 197.685 310.52 170.63 322.15 144.919C332.185 122.733 343.561 99.9827 360.781 83.1926C378.563 65.8377 401.389 59.293 425.05 62.8381C441.362 65.2728 456.876 71.5058 471.301 79.9398C472.28 80.4657 473.151 78.8685 472.19 78.2841Z" fill="#77B523" fill-opacity="0.5"/>
<g opacity="0.4248">
<path opacity="0.4248" d="M481.628 21.8755C453.722 5.22173 419.138 -5.72492 387.439 4.05306C362.852 11.63 344.29 31.3613 330.283 53.5663C314.478 78.615 303.356 106.683 291.543 134.03C284.304 150.801 276.429 166.89 265.887 181.576C254.546 197.373 241.028 211.416 225.932 223.045C210.345 235.082 193.162 244.471 174.963 250.957C154.224 258.358 132.649 262.449 111.366 267.649C76.4006 276.181 39.2945 289.426 16.3958 321.019C6.28916 334.966 0.301384 351.873 0.0110677 369.598C-0.279249 387.81 5.16419 405.729 13.7104 421.312C33.1435 456.742 66.9472 477.019 102.221 489.991C140.034 503.899 179.935 510.521 216.95 527.019C235.476 535.278 253.203 546.108 267.883 560.911C282.435 575.578 293.684 593.459 303.682 611.904C322.498 646.673 337.667 684.597 364.812 713.19C377.314 726.377 392.247 737.031 409.14 742.466C426.105 747.9 444.214 747.9 461.451 743.966C542.504 725.403 578.576 637.693 611.255 565.683C629.545 525.403 649.812 486.174 680.658 455.281C710.416 425.48 745.907 402.73 773.632 370.532C798.237 341.978 816.744 305.417 812.39 265.39C808.252 227.369 786.188 193.711 759.135 169.909C727.962 142.484 689.386 126.434 651.953 111.689C631.831 103.761 611.454 96.379 591.912 86.8737C572.642 77.4853 554.098 66.4997 535.809 55.105C527.063 49.6706 518.371 44.1389 509.662 38.6461C500.408 32.8222 490.828 27.6994 481.465 22.1092C480.83 21.7196 480.249 22.7715 480.884 23.161C490.229 28.7317 499.174 35.14 508.41 40.9445C517.119 46.4373 525.829 51.9496 534.557 57.4035C552.429 68.5254 570.538 79.2772 589.336 88.5098C626.623 106.839 666.469 118.311 703.648 136.952C738.341 154.346 770.965 177.68 791.813 212.975C801.376 229.18 808.198 247.509 810.067 266.676C812.027 286.679 808.271 306.645 800.305 324.779C783.666 362.683 752.693 389.718 722.555 414.864C706.551 428.207 690.402 441.413 675.796 456.509C661.679 471.078 649.54 487.557 638.998 505.243C617.478 541.355 602.418 581.227 583.947 619.111C565.893 656.12 543.828 693.147 511.349 717.378C481.338 739.758 441.782 751.776 406.2 738.629C371.181 725.695 348.01 691.492 330.373 658.34C311.684 623.221 296.152 584.674 267.647 557.074C239.504 529.843 202.489 516.968 166.58 506.684C128.603 495.796 88.9205 486.855 55.4434 463.638C25.8674 443.127 1.28121 407.599 2.42433 368.312C3.58559 328.518 33.5426 300.509 65.2416 285.491C103.237 267.494 145.895 265.916 184.544 249.924C216.859 236.563 245.528 213.501 266.848 184.244C285.791 158.241 296.461 127.291 309.761 97.8788C321.265 72.46 334.293 46.4178 354.016 27.1735C374.429 7.26693 400.594 -0.232118 427.756 3.85827C446.445 6.66311 464.209 13.7921 480.721 23.4727C481.737 24.0375 482.608 22.4403 481.628 21.8755Z" fill="url(#paint0_linear_3057_4)"/>
</g>
<path d="M612.97 462.331C634.344 437.535 661.38 419.732 684.714 397.294C705.054 377.738 723.744 352.884 728.316 323.18C732.707 294.508 722.328 266.304 705.581 244.274C686.928 219.732 660.963 203.799 634.217 191.411C604.986 177.874 574.122 168.66 545.453 153.701C516.893 138.781 490.656 119.459 462.513 103.779C441.193 91.8974 415.01 84.6321 391.295 91.9754C373.041 97.624 358.888 111.726 348.038 127.971C335.645 146.514 326.917 167.589 318.08 188.216C313.018 200.059 308.065 211.941 301.405 222.887C293.948 235.119 284.93 246.241 274.714 255.903C264.245 265.817 252.487 274.153 239.895 280.601C225.397 288.022 209.811 292.365 194.188 296.086C165.773 302.845 136.161 308.298 112.3 327.504C102.266 335.587 93.5932 345.872 88.5308 358.318C83.4684 370.745 82.4523 384.516 85.0107 397.761C90.5085 426.16 109.923 449.027 132.84 463.129C184.626 495.015 253.394 489.542 297.885 536.094C319.478 558.689 331.181 589.113 346.241 616.558C359.614 640.945 376.833 665.195 402 676.161C427.675 687.361 456.924 681.517 480.567 667.454C506.133 652.261 524.858 627.174 539.556 600.605C543.257 593.905 546.741 587.088 550.08 580.173C553.527 573.064 556.176 565.623 559.424 558.416C559.733 557.715 558.771 557.091 558.445 557.793C555.233 564.941 551.35 571.778 547.939 578.81C544.509 585.88 540.953 592.892 537.142 599.748C529.649 613.247 521.248 626.2 511.304 637.75C492.125 660.033 466.269 676.784 437.618 679.16C423.846 680.31 409.948 677.797 397.555 671.135C385.452 664.63 375.255 654.793 366.618 643.71C348.419 620.356 337.532 591.957 322.726 566.227C315.359 553.43 306.94 541.197 296.506 531.088C286.019 520.921 273.735 513.13 260.852 507.033C234.379 494.489 205.801 488.84 178.184 480.017C150.677 471.232 122.716 458.669 104.262 434.049C87.551 411.746 79.6217 380.659 93.1214 354.345C106.222 328.809 132.84 315.213 157.953 307.792C187.329 299.105 218.121 295.813 245.52 280.562C268.636 267.706 288.613 248.403 302.984 225.108C315.25 205.24 322.816 182.295 332.76 161.064C341.542 142.346 351.685 123.374 366.636 109.506C382.132 95.1308 401.71 89.6964 421.905 92.4233C452.043 96.4747 477.519 115.778 503.121 131.827C516.603 140.281 530.193 148.579 544.255 155.902C557.809 162.973 571.781 168.719 585.934 174.231C638.59 194.819 702.823 218.602 722.637 281.516C727.01 295.385 728.298 310.227 725.739 324.641C723.127 339.327 716.903 352.962 708.901 365.116C691.809 391.139 667.422 409.565 644.487 429.121C632.929 438.977 621.679 449.261 611.754 461.006C611.01 461.902 612.226 463.207 612.97 462.331Z" fill="#77B523" fill-opacity="0.5"/>
<defs>
<linearGradient id="paint0_linear_3057_4" x1="0.00889037" y1="373.566" x2="813.038" y2="373.566" gradientUnits="userSpaceOnUse">
<stop stop-color="#5C5A44"/>
<stop offset="0.6103" stop-color="#3F4541"/>
<stop offset="1" stop-color="#313C40"/>
</linearGradient>
</defs>
</svg>
