<svg width="416" height="694" viewBox="0 0 416 694" fill="none" xmlns="http://www.w3.org/2000/svg">
<path d="M87.1045 72.4292C63.5828 58.8867 34.4473 49.979 7.72522 57.909C-13.0159 64.0647 -28.6678 80.1057 -40.4899 98.1744C-53.7984 118.506 -63.1721 141.3 -73.1055 163.515C-79.1914 177.112 -85.8194 190.184 -94.7035 202.097C-104.252 214.915 -115.619 226.285 -128.298 235.736C-141.415 245.494 -155.86 253.117 -171.18 258.385C-188.65 264.396 -206.803 267.727 -224.729 271.928C-254.196 278.862 -285.448 289.634 -304.738 315.307C-313.272 326.659 -318.343 340.419 -318.571 354.848C-318.816 369.658 -314.234 384.251 -307.011 396.924C-290.624 425.729 -262.136 442.205 -232.406 452.76C-200.577 464.057 -166.982 469.435 -135.818 482.832C-120.254 489.531 -105.354 498.312 -93.0071 510.316C-80.7653 522.229 -71.3042 536.731 -62.8923 551.685C-47.0305 579.929 -34.264 610.726 -11.4069 633.954C-0.861466 644.672 11.7475 653.345 25.983 657.762C40.2884 662.18 55.5731 662.18 70.1059 658.975C138.398 643.894 168.792 572.651 196.319 514.154C211.708 481.456 228.777 449.628 254.712 424.552C279.755 400.346 309.643 381.879 332.989 355.735C353.73 332.525 369.33 302.797 365.675 270.262C362.195 239.339 343.605 211.982 320.8 192.628C294.533 170.341 262.04 157.305 230.491 145.32C213.562 138.892 196.424 132.9 179.985 125.187C163.755 117.565 148.156 108.639 132.749 99.4056C125.386 94.988 118.076 90.4979 110.731 86.0441C102.931 81.3187 94.8343 77.227 86.9471 72.6827C86.335 72.3206 85.7754 73.2982 86.3874 73.6603C94.2572 78.1866 101.742 83.4551 109.507 88.1805C116.852 92.6343 124.162 97.1244 131.525 101.542C146.582 110.576 161.832 119.303 177.659 126.798C209.05 141.681 242.593 151.005 273.897 166.14C303.084 180.244 330.541 199.182 348.064 227.824C356.109 240.968 361.845 255.814 363.419 271.348C365.063 287.552 361.915 303.756 355.235 318.439C341.244 349.2 315.169 371.143 289.793 391.547C276.327 402.374 262.722 413.11 250.427 425.367C238.535 437.208 228.305 450.587 219.421 464.963C201.303 494.275 188.624 526.646 173.077 557.407C157.897 587.425 139.324 617.479 112.008 637.141C86.7722 655.3 53.527 665.04 23.6046 654.395C-5.84564 643.912 -25.3101 616.157 -40.1401 589.289C-55.8796 560.756 -68.9608 529.452 -92.9722 507.039C-116.686 484.914 -147.868 474.45 -178.123 466.085C-210.091 457.25 -243.476 450.008 -271.667 431.143C-296.536 414.504 -317.207 385.717 -316.227 353.871C-315.248 321.608 -290.065 298.922 -263.413 286.756C-231.427 272.145 -195.541 270.859 -163.013 257.896C-135.766 247.033 -111.615 228.313 -93.6542 204.523C-77.7049 183.413 -68.7159 158.265 -57.506 134.366C-47.835 113.745 -36.8698 92.5981 -20.2734 76.9917C-3.13495 60.8601 18.8652 54.7769 41.6699 58.072C57.3919 60.3351 72.3444 66.1287 86.2476 73.9681C87.1919 74.4569 88.0313 72.9723 87.1045 72.4292Z" fill="#77B523" fill-opacity="0.5"/>
<g opacity="0.4248">
<path opacity="0.4248" d="M96.2016 19.9939C69.3047 4.51414 35.9721 -5.66083 5.42007 3.42786C-18.2765 10.4707 -36.167 28.811 -49.668 49.4507C-64.9002 72.7336 -75.6206 98.8229 -87.0054 124.242C-93.9832 139.831 -101.573 154.785 -111.734 168.436C-122.664 183.12 -135.693 196.173 -150.243 206.982C-165.265 218.171 -181.827 226.897 -199.368 232.926C-219.357 239.806 -240.15 243.608 -260.664 248.442C-294.364 256.372 -330.127 268.684 -352.197 298.05C-361.938 311.013 -367.71 326.728 -367.989 343.204C-368.269 360.132 -363.023 376.788 -354.786 391.272C-336.056 424.205 -303.475 443.052 -269.478 455.11C-233.032 468.037 -194.576 474.193 -158.9 489.528C-141.044 497.204 -123.958 507.271 -109.81 521.03C-95.7845 534.664 -84.9418 551.284 -75.3058 568.429C-57.1704 600.747 -42.5502 635.997 -16.3878 662.575C-4.33839 674.832 10.0544 684.735 26.336 689.787C42.6875 694.838 60.1408 694.838 76.7547 691.181C154.875 673.927 189.641 592.4 221.138 525.466C238.766 488.025 258.3 451.562 288.03 422.847C316.711 395.147 350.918 374 377.64 344.073C401.354 317.531 419.192 283.548 414.995 246.342C411.008 211.001 389.742 179.716 363.667 157.592C333.622 132.1 296.442 117.181 260.364 103.476C240.969 96.1071 221.33 89.2453 202.495 80.4101C183.923 71.6835 166.05 61.4723 148.422 50.8809C139.992 45.8296 131.615 40.6879 123.221 35.5823C114.302 30.1689 105.068 25.4073 96.0442 20.2111C95.4321 19.849 94.8725 20.8267 95.4846 21.1888C104.491 26.3668 113.113 32.3234 122.014 37.7186C130.409 42.8242 138.803 47.948 147.215 53.0174C164.441 63.3553 181.894 73.3492 200.012 81.9309C235.95 98.9677 274.355 109.632 310.188 126.958C343.626 143.126 375.069 164.815 395.163 197.622C404.38 212.685 410.955 229.722 412.757 247.537C414.645 266.131 411.025 284.688 403.348 301.544C387.311 336.776 357.459 361.906 328.411 385.279C312.986 397.681 297.422 409.956 283.344 423.988C269.738 437.53 258.038 452.847 247.877 469.286C227.136 502.853 212.621 539.914 194.818 575.128C177.417 609.527 156.151 643.945 124.847 666.467C95.9218 687.27 57.7974 698.441 23.5029 686.22C-10.2494 674.198 -32.5819 642.406 -49.5805 611.591C-67.5935 578.948 -82.5634 543.118 -110.037 517.464C-137.162 492.153 -172.838 480.186 -207.447 470.626C-244.05 460.506 -282.297 452.195 -314.563 430.614C-343.069 411.55 -366.765 378.526 -365.663 342.009C-364.544 305.02 -335.671 278.985 -305.119 265.026C-268.499 248.297 -227.384 246.831 -190.134 231.967C-158.987 219.547 -131.356 198.11 -110.807 170.917C-92.5492 146.747 -82.2661 117.978 -69.4472 90.6395C-58.3596 67.0125 -45.8031 42.8061 -26.7933 24.9184C-7.11904 6.41517 18.0991 -0.555242 44.279 3.2468C62.2919 5.85391 79.4129 12.4803 95.3272 21.4785C96.3065 22.0035 97.146 20.5189 96.2016 19.9939Z" fill="url(#paint0_linear_3057_244)"/>
</g>
<path d="M222.792 429.4C243.394 406.352 269.451 389.804 291.941 368.947C311.545 350.77 329.558 327.668 333.965 300.058C338.197 273.407 328.194 247.191 312.052 226.715C294.074 203.902 269.049 189.093 243.271 177.578C215.097 164.995 185.35 156.431 157.718 142.527C130.192 128.658 104.904 110.698 77.7796 96.1236C57.2309 85.0796 31.9954 78.3265 9.13821 85.152C-8.45498 90.4025 -22.0958 103.51 -32.5538 118.61C-44.4983 135.846 -52.9101 155.435 -61.4269 174.609C-66.3062 185.616 -71.0805 196.66 -77.4986 206.835C-84.6863 218.205 -93.378 228.543 -103.224 237.523C-113.315 246.739 -124.647 254.488 -136.784 260.48C-150.757 267.378 -165.779 271.416 -180.837 274.874C-208.223 281.156 -236.764 286.226 -259.761 304.077C-269.432 311.591 -277.792 321.15 -282.671 332.719C-287.55 344.27 -288.529 357.07 -286.064 369.382C-280.765 395.779 -262.052 417.034 -239.965 430.142C-190.053 459.78 -123.773 454.692 -80.8914 497.963C-60.0803 518.965 -48.8004 547.245 -34.2852 572.755C-21.3963 595.422 -4.79994 617.963 19.4563 628.156C44.2022 638.566 72.3932 633.135 95.1804 620.063C119.821 605.941 137.869 582.622 152.035 557.927C155.602 551.699 158.96 545.362 162.178 538.935C165.501 532.326 168.054 525.41 171.184 518.711C171.482 518.06 170.555 517.48 170.24 518.132C167.145 524.776 163.402 531.131 160.114 537.667C156.809 544.239 153.381 550.757 149.709 557.13C142.486 569.677 134.389 581.717 124.806 592.453C106.32 613.165 81.3997 628.735 53.7857 630.944C40.5121 632.012 27.1161 629.677 15.1716 623.485C3.50696 617.438 -6.32142 608.295 -14.6458 597.993C-32.1866 576.285 -42.6795 549.888 -56.9499 525.971C-64.0502 514.076 -72.1647 502.707 -82.2204 493.31C-92.3287 483.859 -104.168 476.617 -116.585 470.95C-142.1 459.291 -169.644 454.04 -196.261 445.839C-222.774 437.674 -249.723 425.996 -267.509 403.111C-283.615 382.381 -291.258 353.486 -278.246 329.026C-265.62 305.29 -239.965 292.653 -215.761 285.755C-187.447 277.68 -157.77 274.62 -131.362 260.444C-109.082 248.495 -89.8279 230.553 -75.9772 208.899C-64.1551 190.432 -56.8625 169.105 -47.2789 149.37C-38.8146 131.971 -29.0387 114.337 -14.6283 101.446C0.306647 88.085 19.1765 83.0337 38.6409 85.5684C67.6889 89.3342 92.2424 107.276 116.918 122.195C129.912 130.052 143.011 137.765 156.564 144.572C169.628 151.145 183.094 156.486 196.735 161.609C247.486 180.746 309.394 202.852 328.491 261.331C332.706 274.222 333.948 288.018 331.482 301.416C328.964 315.067 322.965 327.74 315.253 339.038C298.779 363.226 275.275 380.353 253.169 398.531C242.029 407.692 231.187 417.251 221.621 428.168C220.904 429.001 222.075 430.214 222.792 429.4Z" fill="#77B523" fill-opacity="0.5"/>
<defs>
<linearGradient id="paint0_linear_3057_244" x1="-367.991" y1="346.892" x2="415.62" y2="346.892" gradientUnits="userSpaceOnUse">
<stop stop-color="#5C5A44"/>
<stop offset="0.6103" stop-color="#3F4541"/>
<stop offset="1" stop-color="#313C40"/>
</linearGradient>
</defs>
</svg>
