<svg width="360" height="757" viewBox="0 0 360 757" fill="none" xmlns="http://www.w3.org/2000/svg">
<path d="M296.612 439.24C308.373 416.538 316.109 388.418 309.222 362.628C303.876 342.61 289.945 327.503 274.253 316.093C256.596 303.248 236.8 294.201 217.507 284.614C205.699 278.74 194.347 272.343 184.001 263.769C172.869 254.553 162.994 243.582 154.787 231.345C146.312 218.686 139.692 204.744 135.117 189.958C129.897 173.096 127.004 155.576 123.356 138.276C117.334 109.835 107.978 79.6727 85.6824 61.0554C75.8238 52.8186 63.8741 47.9237 51.3425 47.7043C38.4808 47.468 25.8077 51.8903 14.8013 58.8612C-10.2146 74.6766 -24.5229 102.172 -33.6896 130.866C-43.501 161.585 -48.1708 194.009 -59.8061 224.087C-65.6238 239.109 -73.2496 253.49 -83.6743 265.406C-94.0202 277.221 -106.615 286.353 -119.602 294.471C-144.131 309.78 -170.876 322.102 -191.049 344.162C-200.358 354.34 -207.889 366.51 -211.726 380.249C-215.562 394.056 -215.562 408.808 -212.779 422.834C-199.682 488.746 -137.81 518.081 -87.0077 544.648C-58.6113 559.501 -30.9694 575.975 -9.19254 601.006C11.8296 625.177 27.8675 654.022 50.5721 676.555C70.7294 696.574 96.5472 711.629 124.802 708.102C151.658 704.743 175.416 686.801 192.224 664.791C211.58 639.439 222.9 608.078 233.309 577.629C238.891 561.29 244.096 544.749 250.794 528.883C257.413 513.22 265.165 498.164 273.184 483.294C277.02 476.188 280.92 469.133 284.788 462.044C288.892 454.516 292.445 446.701 296.392 439.088C296.706 438.498 295.857 437.958 295.543 438.548C291.612 446.144 287.036 453.368 282.932 460.862C279.064 467.951 275.165 475.006 271.329 482.112C263.483 496.645 255.904 511.363 249.394 526.639C236.47 556.936 228.372 589.309 215.227 619.522C202.979 647.693 186.532 674.192 161.658 691.105C150.243 698.869 137.349 704.405 123.859 705.924C109.786 707.511 95.7139 704.473 82.9623 698.025C56.2482 684.522 37.1914 659.356 19.4712 634.865C10.0686 621.868 0.744625 608.737 -9.90011 596.871C-20.1832 585.393 -31.8028 575.519 -44.2872 566.945C-69.7434 549.458 -97.8568 537.221 -124.571 522.216C-150.64 507.565 -176.741 489.64 -193.817 463.276C-209.587 438.92 -218.046 406.833 -208.801 377.954C-199.697 349.53 -175.593 330.744 -152.26 316.431C-127.48 301.24 -100.294 288.615 -80.8283 265.44C-61.6143 242.552 -52.5262 212.458 -45.262 183.257C-37.589 152.403 -31.2996 120.182 -14.9159 92.9731C-0.46606 68.9715 24.5341 49.0209 52.1916 49.9661C80.2107 50.9113 99.9121 75.2167 110.478 100.94C123.167 131.811 124.283 166.446 135.541 197.841C144.975 224.138 161.233 247.447 181.894 264.782C200.227 280.175 222.067 288.851 242.822 299.67C260.731 309.004 279.096 319.587 292.649 335.605C306.659 352.146 311.942 373.38 309.08 395.389C307.115 410.563 302.084 424.995 295.275 438.413C294.851 439.325 296.14 440.135 296.612 439.24Z" fill="#77B523" fill-opacity="0.5"/>
<g opacity="0.4248">
<path opacity="0.4248" d="M342.146 448.023C355.589 422.063 364.426 389.892 356.533 360.405C350.416 337.534 334.489 320.267 316.564 307.237C296.344 292.536 273.686 282.189 251.611 271.201C238.073 264.466 225.085 257.141 213.23 247.334C200.478 236.785 189.142 224.211 179.755 210.167C170.038 195.669 162.459 179.684 157.223 162.755C151.248 143.463 147.946 123.394 143.748 103.595C136.861 71.0698 126.169 36.5527 100.666 15.2518C89.408 5.85032 75.7601 0.280342 61.4518 0.0102815C46.7504 -0.259779 32.2849 4.80385 19.7062 12.7537C-8.89466 30.8309 -25.2627 62.2759 -35.7345 95.0882C-46.961 130.263 -52.307 167.38 -65.6247 201.812C-72.2915 219.046 -81.0337 235.536 -92.9835 249.191C-104.823 262.728 -119.257 273.193 -134.147 282.493C-162.214 299.996 -192.827 314.107 -215.909 339.357C-226.554 350.987 -235.154 364.878 -239.541 380.592C-243.928 396.374 -243.928 413.219 -240.752 429.253C-225.768 504.651 -154.965 538.206 -96.8358 568.604C-64.3198 585.618 -32.6527 604.472 -7.71543 633.165C16.3414 660.847 34.7063 693.861 60.697 719.652C83.7475 742.54 113.26 759.756 145.572 755.705C176.264 751.857 203.434 731.332 222.648 706.166C244.787 677.168 257.743 641.284 269.645 606.463C276.045 587.745 282.004 568.79 289.677 550.611C297.256 532.686 306.124 515.436 315.322 498.422C319.709 490.287 324.174 482.202 328.608 474.1C333.309 465.492 337.445 456.58 341.957 447.871C342.272 447.28 341.423 446.74 341.108 447.331C336.611 456.023 331.438 464.344 326.753 472.936C322.319 481.037 317.869 489.139 313.466 497.258C304.488 513.883 295.809 530.728 288.356 548.215C273.56 582.901 264.299 619.966 249.252 654.551C235.211 686.823 216.374 717.171 187.884 736.565C174.802 745.46 160.006 751.806 144.534 753.545C128.386 755.367 112.27 751.874 97.6313 744.464C67.0336 728.986 45.2095 700.174 24.9106 672.138C14.1401 657.251 3.47962 642.229 -8.70601 628.642C-20.4671 615.51 -33.7692 604.218 -48.046 594.412C-77.1972 574.394 -109.383 560.384 -139.965 543.202C-169.839 526.407 -199.73 505.883 -219.289 475.67C-237.356 447.752 -247.057 410.957 -236.444 377.858C-226.003 345.282 -198.393 323.728 -171.632 307.321C-143.283 289.936 -112.166 275.488 -89.8859 248.972C-67.9046 222.793 -57.5115 188.36 -49.2095 154.957C-40.4201 119.63 -33.2031 82.7161 -14.4608 51.5748C2.09593 24.0625 30.7754 1.19179 62.4895 2.25516C94.6124 3.3354 117.223 31.2022 129.345 60.6893C143.874 96.0334 145.147 135.715 158.056 171.667C168.843 201.728 187.459 228.396 211.076 248.229C232.066 265.85 257.051 275.775 280.793 288.147C301.312 298.848 322.334 310.967 337.869 329.314C353.938 348.303 359.992 372.642 356.69 397.91C354.426 415.295 348.671 431.819 340.857 447.179C340.401 448.124 341.69 448.934 342.146 448.023Z" fill="url(#paint0_linear_3057_33)"/>
</g>
<path d="M-13.4023 570.201C6.61356 590.084 20.9848 615.233 39.0981 636.94C54.8844 655.861 74.9475 673.246 98.9257 677.499C122.071 681.584 144.838 671.929 162.621 656.35C182.433 638.999 195.294 614.845 205.294 589.966C216.222 562.774 223.659 534.064 235.735 507.395C247.779 480.828 263.377 456.421 276.034 430.243C285.625 410.41 291.49 386.054 285.562 363.993C281.003 347.013 269.619 333.848 256.506 323.755C241.537 312.226 224.524 304.108 207.873 295.888C198.313 291.179 188.722 286.571 179.885 280.376C170.011 273.439 161.033 265.05 153.234 255.548C145.231 245.809 138.501 234.871 133.297 223.157C127.306 209.671 123.8 195.172 120.797 180.64C115.341 154.208 110.938 126.662 95.4351 104.466C88.9099 95.132 80.6079 87.064 70.5607 82.3548C60.5292 77.6457 49.4127 76.7005 38.7208 79.0804C15.7961 84.1946 -2.66318 102.255 -14.0469 123.573C-39.7861 171.745 -35.3679 235.715 -72.9468 277.102C-91.186 297.187 -115.746 308.074 -137.9 322.084C-157.586 334.523 -177.161 350.541 -186.014 373.952C-195.055 397.835 -190.338 425.044 -178.985 447.037C-166.721 470.819 -146.469 488.238 -125.023 501.91C-119.614 505.353 -114.111 508.594 -108.529 511.699C-102.79 514.906 -96.7834 517.371 -90.9658 520.392C-90.3997 520.679 -89.8966 519.784 -90.4626 519.48C-96.2331 516.493 -101.752 512.881 -107.428 509.708C-113.136 506.517 -118.796 503.209 -124.331 499.665C-135.227 492.694 -145.683 484.879 -155.007 475.629C-172.995 457.789 -186.517 433.736 -188.435 407.085C-189.363 394.274 -187.334 381.345 -181.957 369.817C-176.705 358.558 -168.765 349.073 -159.819 341.038C-140.966 324.109 -118.041 313.982 -97.2709 300.209C-86.9406 293.356 -77.0663 285.524 -68.9059 275.819C-60.6983 266.063 -54.4089 254.636 -49.4874 242.652C-39.3616 218.026 -34.8018 191.442 -27.6791 165.753C-20.5878 140.165 -10.4463 114.154 9.4281 96.9887C27.4314 81.4434 52.526 74.0674 73.7683 86.6252C94.3816 98.8116 105.357 123.573 111.347 146.933C118.36 174.26 121.017 202.903 133.328 228.39C143.706 249.893 159.288 268.477 178.093 281.845C194.131 293.255 212.653 300.293 229.792 309.543C244.902 317.712 260.216 327.147 271.411 341.055C283.015 355.47 287.402 373.682 285.201 392.468C281.93 420.503 266.348 444.201 253.392 468.017C246.568 480.558 239.87 493.2 233.958 506.281C228.251 518.89 223.612 531.886 219.163 545.052C202.543 594.034 183.345 653.785 132.558 672.216C121.363 676.284 109.382 677.482 97.7464 675.102C85.891 672.672 74.8846 666.882 65.0732 659.439C44.0668 643.539 29.1924 620.854 13.4061 599.519C5.45011 588.768 -2.85184 578.303 -12.333 569.07C-13.0563 568.378 -14.1099 569.509 -13.4023 570.201Z" fill="#77B523" fill-opacity="0.5"/>
<defs>
<linearGradient id="paint0_linear_3057_33" x1="58.2483" y1="0.00825591" x2="58.2483" y2="756.309" gradientUnits="userSpaceOnUse">
<stop stop-color="#5C5A44"/>
<stop offset="0.6103" stop-color="#3F4541"/>
<stop offset="1" stop-color="#313C40"/>
</linearGradient>
</defs>
</svg>
