<svg width="14" height="17" viewBox="0 0 14 17" fill="none" xmlns="http://www.w3.org/2000/svg">
<path d="M13.3271 15.494L13.9833 12.2282C14.0544 11.8734 13.8931 11.5091 13.6032 11.3647L10.5408 9.85736C10.2728 9.72548 9.95838 9.8134 9.77518 10.074L8.41896 11.977C6.32174 10.8465 4.57725 8.87135 3.57375 6.41258L5.23075 4.85505C5.4577 4.64152 5.53426 4.28354 5.41942 3.9758L4.10695 0.458794C3.97843 0.122794 3.66125 -0.0624771 3.35227 0.0191676L0.508584 0.772812C0.213278 0.851316 9.09798e-07 1.15277 8.96292e-07 1.50761C5.90199e-07 9.54963 5.67371 16.0781 12.6872 16.0781C12.9935 16.0781 13.2587 15.8363 13.3271 15.494Z" fill="white"/>
</svg>
