<svg width="512" height="512" viewBox="0 0 512 512" fill="none" xmlns="http://www.w3.org/2000/svg">
<g clip-path="url(#clip0_3076_291)">
<rect width="512" height="512" rx="112" fill="#141E05"/>
<path d="M144 115C141.067 115 138.667 115.933 136.8 117.8C134.933 119.667 134 122.067 134 125V385C134 387.933 134.933 390.333 136.8 392.2C138.667 394.067 141.067 395 144 395H195.6C198.533 395 200.933 394.067 202.8 392.2C204.667 390.333 205.6 387.933 205.6 385V288.6H304.4V385C304.4 387.933 305.333 390.333 307.2 392.2C309.067 394.067 311.467 395 314.4 395H366C368.933 395 371.333 394.067 373.2 392.2C375.067 390.333 376 387.933 376 385V125C376 122.067 375.067 119.667 373.2 117.8C371.333 115.933 368.933 115 366 115H314.4C311.467 115 309.067 115.933 307.2 117.8C305.333 119.667 304.4 122.067 304.4 125V224.6H205.6V125C205.6 122.067 204.667 119.667 202.8 117.8C200.933 115.933 198.533 115 195.6 115H144Z" fill="#77B523"/>
</g>
<defs>
<clipPath id="clip0_3076_291">
<rect width="512" height="512" fill="white"/>
</clipPath>
</defs>
</svg>
